<svg xmlns="http://www.w3.org/2000/svg" viewBox="0 0 403.6 61.1" enable-background="new 0 0 403.6 61.1"><style>.style0{fill: #4C4D4D;}.style1{fill: #94CEE6;}.style2{fill: #4AA5C1;}.style3{fill: #E64855;}.style4{fill: #A6384C;}.style5{fill: #23AB6E;}.style6{fill: #1B8452;}</style><path d="M4 22v17.3h10.8v3.7h-14.8v-21h4zM44.8 32.6c-.1 5.4-3.4 10.9-10.8 10.9s-10.8-5.3-10.8-10.8 3.5-11.1 10.8-11.1c7.2 0 10.8 5.5 10.8 11zm-17.7.1c.1 3.4 1.9 7.1 6.9 7.1s6.8-3.7 6.9-7.2c.1-3.5-1.9-7.5-6.9-7.5-5 .1-7 4.1-6.9 7.6zM73.4 40.4c-2.2 2.1-4.9 3.1-8 3.1-7.8 0-11.1-5.4-11.1-10.8 0-5.5 3.5-11.1 11.1-11.1 2.9 0 5.5 1.1 7.7 3.2l-2.6 2.6c-1.4-1.4-3.2-2-5.1-2-5.1 0-7.3 3.8-7.2 7.3 0 3.5 2 7.1 7.2 7.1 1.8 0 3.9-.8 5.3-2.1l2.7 2.7zM96.8 39h-11l-1.8 4h-4.3l9.4-21h4.3l9.4 21h-4.3l-1.7-4zm-5.5-12.6l-3.9 8.9h7.8l-3.9-8.9zM116.1 22v17.3h10.8v3.7h-14.8v-21h4zM233.5 27.8l-6.8 9.1h-.8l-6.7-9.1v15.2h-4v-21h4.6l6.6 9 6.6-9h4.5v21h-4v-15.2zM264 43h-15.7v-21h15.7v3.8h-11.8v4.8h11.4v3.7h-11.4v4.7h11.8v4zM289.2 39h-11l-1.8 4h-4.3l9.4-21h4.3l9.4 21h-4.2l-1.8-4zm-5.5-12.6l-3.9 8.9h7.8l-3.9-8.9zM316.9 27.1c-.7-1.2-2.7-2.3-5-2.3-2.9 0-4.4 1.2-4.4 2.8 0 1.8 2.2 2.3 4.7 2.6 4.4.5 8.5 1.7 8.5 6.7 0 4.7-4.1 6.7-8.8 6.7-4.3 0-7.6-1.3-9.1-5.2l3.3-1.7c.9 2.3 3.3 3.3 5.9 3.3 2.5 0 4.8-.9 4.8-3.2 0-2-2.1-2.8-4.9-3.1-4.3-.5-8.2-1.6-8.2-6.4 0-4.3 4.3-6.1 8.1-6.1 3.3 0 6.7.9 8.2 4.2l-3.1 1.7zM349.4 22v12c0 6.2-3.8 9.4-9.1 9.4-5 0-9.3-3.1-9.3-9.4v-12h3.9v12c0 3.8 2.2 5.8 5.4 5.8s5.1-2.2 5.1-5.8v-12h4zM379.1 43h-4.7l-6.1-7h-3.8v7h-4v-21h10c5 0 7.6 3.3 7.6 7 0 2.9-1.3 5.8-5.3 6.6l6.4 7.2v.2zm-14.6-17.3v6.7h6c2.5 0 3.6-1.7 3.6-3.4s-1.1-3.4-3.6-3.4h-6zM403.6 43h-15.7v-21h15.7v3.8h-11.8v4.8h11.4v3.7h-11.4v4.7h11.8v4z" class="style0"/><path class="style1" d="M153.8 25.3v28.1h11v-35.8l-10.8 7.7z"/><path class="style2" d="M153.8 45.5v15.600000000000001h.2l10.8-7.7v-.2z"/><path class="style3" d="M166.9 16.9v28h11v-35.7l-10.7 7.7z"/><path class="style4" d="M166.9 37v15.600000000000001h.3l10.7-7.7v-.2z"/><path class="style5" d="M180.4 7.7v28.1h11.1v-35.8l-10.8 7.7z"/><path class="style6" d="M180.4 27.9v15.600000000000001h.3l10.8-7.7v-.2z"/></svg>